<?xml version="1.0" encoding="UTF-8" standalone="no"?><!DOCTYPE svg PUBLIC "-//W3C//DTD SVG 1.1//EN" "http://www.w3.org/Graphics/SVG/1.1/DTD/svg11.dtd"><svg width="100%" height="100%" viewBox="0 0 49 49" version="1.1" xmlns="http://www.w3.org/2000/svg" xmlns:xlink="http://www.w3.org/1999/xlink" xml:space="preserve" xmlns:serif="http://www.serif.com/" style="fill-rule:evenodd;clip-rule:evenodd;stroke-linejoin:round;stroke-miterlimit:2;"><rect id="Earthquake" x="0.157" y="0.177" width="48" height="48" style="fill:none;"/><clipPath id="_clip1"><rect x="0.157" y="0.177" width="48" height="48"/></clipPath><g clip-path="url(#_clip1)"><path d="M34.347,32.362l-10.19,15.815l-10.189,-15.815c2.899,2.002 6.409,3.174 10.189,3.174c3.78,-0 7.29,-1.172 10.19,-3.174Z" style="fill:#680e05;"/><path d="M6.644,12.773c-0.134,-0.143 -0.266,-0.285 -0.397,-0.425l0,-0.001c0,0 0,0.001 -0,0.001c-0.04,-0.043 -0.08,-0.085 -0.12,-0.128c-0,0 3.673,4.755 5.888,5.696c2.215,0.941 3.389,-3.778 7.403,-0.05c2.053,1.907 4.785,-4.293 4.785,-4.293l-7.616,-0.768l6.941,-1.636l-1.977,-1.463l-5.508,0c-0,0 7.97,-2.701 9.881,-4.472l-5.437,-0.229l5.041,-2.59l-2.735,-2.238l4.826,2.306l-1.931,1.201l2.836,0.72l-0.311,0.975l-3.369,2.747l1.268,1.204l3.187,0.376l-2.94,1.173l1.112,0.836l-1.162,0.492l4.3,0.811l-1.578,1.97c0,-0 5.953,4.46 9.385,-6.341c0.656,-2.063 3.602,2.913 3.715,4.377c0.066,0.853 0.057,0.993 0.057,1.497c-0,0.977 -0.072,1.937 -0.212,2.873c-0.022,0.153 -0.047,0.306 -0.073,0.457c-0.869,5.013 -3.662,9.336 -7.556,12.113c-1.842,1.313 -3.93,2.28 -6.176,2.812c-0.894,0.211 -0.871,0.235 -2.065,0.358c-0.64,0.071 -1.29,0.108 -1.949,0.108c-3.78,-0 -7.29,-1.21 -10.189,-3.278c-3.895,-2.777 -6.688,-7.1 -7.556,-12.113c-0.027,-0.151 -0.051,-0.304 -0.074,-0.457c-0.139,-0.936 -0.211,-1.896 -0.211,-2.873c-0,-0.718 0.039,-1.426 0.115,-2.123c0.001,0.137 0.141,0.263 0.402,0.375Z" style="fill:url(#_Linear2);"/><path d="M12.198,11.488l1.582,0.992l-0.469,2.92l-1.993,-0.759l-0.47,-1.343l1.35,-1.81Z" style="fill:#390000;"/><path d="M29.451,1.182l1.231,0.293l0.059,1.167l-0.996,0.642l-1.291,-1.284l0.997,-0.818Z" style="fill:#390000;"/><path d="M34.098,8.38l2.04,1.712l-0.455,1.439l-2.19,0.889l-0.904,-2.054l1.509,-1.986Z" style="fill:#390000;"/></g><defs><linearGradient id="_Linear2" x1="0" y1="0" x2="1" y2="0" gradientUnits="userSpaceOnUse" gradientTransform="matrix(1.96028e-15,33.0647,-32.0138,2.02463e-15,24.1574,0.177157)"><stop offset="0" style="stop-color:#b74110;stop-opacity:1"/><stop offset="1" style="stop-color:#5e0703;stop-opacity:1"/></linearGradient></defs></svg>