<?xml version="1.0" encoding="UTF-8" standalone="no"?><!DOCTYPE svg PUBLIC "-//W3C//DTD SVG 1.1//EN" "http://www.w3.org/Graphics/SVG/1.1/DTD/svg11.dtd"><svg width="100%" height="100%" viewBox="0 0 49 49" version="1.1" xmlns="http://www.w3.org/2000/svg" xmlns:xlink="http://www.w3.org/1999/xlink" xml:space="preserve" xmlns:serif="http://www.serif.com/" style="fill-rule:evenodd;clip-rule:evenodd;stroke-linejoin:round;stroke-miterlimit:2;"><rect id="Landslide" x="0.021" y="0.177" width="48" height="48" style="fill:none;"/><clipPath id="_clip1"><rect x="0.021" y="0.177" width="48" height="48"/></clipPath><g clip-path="url(#_clip1)"><path d="M34.001,32.687l-9.98,15.49l-9.98,-15.49c2.84,1.96 6.278,3.108 9.98,3.108c3.702,0 7.14,-1.148 9.98,-3.108Z" style="fill:#aa2e00;"/><path d="M31.019,10.894c1.729,3.367 6.526,4.255 6.961,-1.747c0.193,-2.669 1.107,-3.192 2.503,0.211c0.774,1.996 1.198,4.167 1.198,6.437c0,0.926 -0.07,1.836 -0.207,2.725c-0.022,0.145 -0.046,0.289 -0.072,0.433c-0.85,4.754 -3.586,8.854 -7.401,11.487c-1.803,1.245 -3.848,2.163 -6.049,2.666c-0.875,0.201 -0.853,0.223 -2.022,0.34c-0.627,0.068 -1.264,0.103 -1.909,0.103c-3.702,-0 -7.14,-1.148 -9.98,-3.109c-3.815,-2.633 -6.551,-6.733 -7.401,-11.487c-0.026,-0.144 -0.05,-0.288 -0.072,-0.433c-0.136,-0.889 -0.207,-1.799 -0.207,-2.725c-0,-0.698 0.04,-1.385 0.118,-2.062c-0.483,2.031 4.862,6.153 7.562,2.684c-0,0 1.472,-2.733 2.434,-4.574l6.329,-10.963c0.244,-0.42 0.696,-0.703 1.215,-0.703c0.52,0 0.973,0.283 1.216,0.703l5.784,10.014Zm-6.984,-8.373l-3.505,6.005l1.034,-0.858l0.174,-0.114l0.172,-0.058l0.345,0l0.114,0.058l0.174,0.114l0.632,0.515l1.262,-1.086l0.174,-0.115l0.172,0l0.172,-0.057l0.172,0.057l0.172,0l0.116,0.115l2.47,2.058l-3.85,-6.634Zm-1.492,6.747l-0.289,0.116l-0.23,0.114l-0.23,0.115l-0.46,0.342l-0.172,0.172l-0.114,0.115l-0.116,0.171l-0.056,0.229l-0.058,0.171l-0,0.172l0.058,0.171l0.114,0.229l0.116,0.171l0.286,0.287l0.058,0.056l0.114,0.057l0.23,0.229l0.172,0.116l0.116,0.056l0.114,0.116l0.116,0.055l0.056,0.058l-1.722,2.859l-2.872,1.2l-0.518,2.46l-4.079,2.116l12.294,0l-0.516,-0.629l1.092,-1.487l1.894,1.029l-0.172,1.087l7.066,0l-2.758,-2.517l-0.631,1.545l-1.839,-0.457l-0.402,-1.659l1.264,-0.916l-1.436,-0.342l-2.24,-2.518l-0.172,-1.485l-0.288,-0.171l-0.286,-0.173l-0.346,-0.171l-0.286,-0.172l-0.346,-0.171l-0.344,-0.115l-0.345,-0.114l-0.345,-0.114l-0.287,-0.115l-0.346,-0.114l-0.227,-0.057l-0.288,-0.113l-0.23,-0.058l-0.172,-0.058l-0.116,-0.058l-0.114,-0.055l-0.231,-0.116l-0.172,-0.114l-0.114,-0.115l-0.058,-0.114l-0.058,-0.115l0,-0.227l0.058,-0.115l0.114,-0.114l0.058,-0.116l0.345,-0.342l0.172,-0.114l0.116,-0.057l0.114,-0.116l-0.056,0Zm2.009,3.547l0.23,0.113l0.287,0.116l0.23,0.171l0.46,0.458l0.172,0.285l0.23,0.344l0.23,0.342l0.344,0.916l0.23,0.514l-0,0.114l0.058,0.173l0.114,0.171l0.058,0.229l0.114,0.285l0.116,0.286l0.114,0.285l0.172,0.287l0.174,0.342l0.172,0.287l0.172,0.343l0.23,0.286l-0.058,0.058l-0.344,-0.229l-0.346,-0.229l-0.228,-0.287l-0.288,-0.229l-0.23,-0.284l-0.172,-0.287l-0.172,-0.285l-0.116,-0.287l-0.172,-0.229l-0.114,-0.284l-0.058,-0.229l-0.114,-0.229l-0.058,-0.345l-0.172,-0.284l-0.116,-0.401l-0.114,-0.344l-0.172,-0.4l-0.23,-0.4l-0.172,-0.343l-0.288,-0.4l-0.23,-0.343l0.057,-0.057Zm-2.298,6.061l1.206,0.287l0.058,1.143l-0.976,0.629l-1.264,-1.259l0.976,-0.8Zm-2.814,-2.173l1.55,0.972l-0.46,2.859l-1.952,-0.742l-0.46,-1.317l1.322,-1.772Zm4.824,-1.316l1.553,1.43l-0.346,1.203l-1.667,0.742l-0.688,-1.716l1.148,-1.659Zm-1.952,-3.715l0.056,0.056l0.116,-0l0.114,0.057l0.116,0.058l0.114,0.056l0.116,0.115l0.172,0.058l0.345,0.343l0.115,0.113l0.057,0.116l0.116,0.171l0.056,0.171l0.116,0.343l-0,0.229l-0.058,0.229l-0.058,0.286l-0.056,0.229l-0.116,0.285l-0.172,0.287l-0.173,0.342l-0.23,0.4l-0.23,0.345l-0.516,1.201l-0.116,0.4l-0.056,0.4l-0.058,-0l-0.172,-0.287l-0.058,-0.285l-0.058,-0.286l-0.056,-0.287l0.056,-0.342l0.058,-0.343l0.114,-0.344l0.116,-0.343l0.23,-0.342l0.172,-0.345l0.23,-0.342l0.114,-0.285l0.116,-0.229l0.114,-0.287l0.116,-0.458l0,-0.171l-0.173,-0.514l-0.115,-0.171l-0.116,-0.173l-0.172,-0.114l-0.172,-0.115l-0.172,-0.171l0.058,-0.056Z" style="fill:url(#_Linear2);"/></g><defs><linearGradient id="_Linear2" x1="0" y1="0" x2="1" y2="0" gradientUnits="userSpaceOnUse" gradientTransform="matrix(1.99064e-15,32.5096,-32.5096,1.99064e-15,24.0211,0.177157)"><stop offset="0" style="stop-color:#4e1b00;stop-opacity:1"/><stop offset="0.5" style="stop-color:#932900;stop-opacity:1"/><stop offset="1" style="stop-color:#aa2e00;stop-opacity:1"/></linearGradient></defs></svg>