<?xml version="1.0" encoding="UTF-8" standalone="no"?><!DOCTYPE svg PUBLIC "-//W3C//DTD SVG 1.1//EN" "http://www.w3.org/Graphics/SVG/1.1/DTD/svg11.dtd"><svg width="100%" height="100%" viewBox="0 0 49 49" version="1.1" xmlns="http://www.w3.org/2000/svg" xmlns:xlink="http://www.w3.org/1999/xlink" xml:space="preserve" xmlns:serif="http://www.serif.com/" style="fill-rule:evenodd;clip-rule:evenodd;stroke-linejoin:round;stroke-miterlimit:2;"><rect id="Responder" x="0.048" y="0.177" width="48" height="48" style="fill:none;"/><clipPath id="_clip1"><rect x="0.048" y="0.177" width="48" height="48"/></clipPath><g clip-path="url(#_clip1)"><path d="M34.88,31.27l-10.893,16.907l-10.893,-16.907c3.1,2.14 6.852,3.393 10.893,3.393c4.041,0 7.793,-1.253 10.893,-3.393Z" style="fill:#00280d;"/><path d="M28.277,31.728c-0.721,0.165 -1.457,0.29 -2.207,0.371c0.369,-0.526 0.704,-1.076 1.004,-1.647c0.376,0.448 0.778,0.874 1.203,1.276Z" style="fill:#ebebeb;"/><path d="M4.84,10.585c-0.004,0.017 -0.006,0.034 -0.005,0.051c0.002,-0.017 0.004,-0.034 0.005,-0.051c0,0 0,0 0,-0Z" style="fill:#4c2424;"/><path d="M34.579,0.177c4.298,3.267 7.071,8.401 7.071,14.17c-0,9.859 -8.099,17.864 -18.075,17.864c-5.248,-0 -9.977,-2.216 -13.281,-5.752c3.049,2.316 6.865,3.694 11.003,3.694c0.759,0 1.507,-0.046 2.241,-0.136c7.448,-0.911 13.497,-6.309 15.291,-13.368c0.355,-1.396 0.543,-2.856 0.543,-4.36c-0,-4.672 -1.819,-8.927 -4.793,-12.112Z" style="fill:url(#_Linear2);"/><path d="M4.84,10.585c0.001,-0 0.001,-0.001 0.001,-0.001c-0,0 -0.001,0.001 -0.001,0.001c0,0 0,0 0,0Z"/><path d="M43.196,11.217l0.066,-0.002c-0.02,0.023 -0.04,0.046 -0.061,0.069c-0.002,-0.022 -0.003,-0.044 -0.005,-0.067Z"/><g><path d="M36.013,9.792l-2.335,-4.043l-7.36,4.25l0,-8.498l-4.669,-0l-0,8.5l-7.362,-4.251l-2.335,4.044l7.36,4.249l-7.358,4.249l2.335,4.043l7.36,-4.25l-0,8.502l4.669,-0l0,-8.499l7.358,4.249l2.335,-4.043l-7.361,-4.251l7.363,-4.251Z" style="fill:url(#_Linear3);fill-rule:nonzero;"/></g></g><defs><linearGradient id="_Linear2" x1="0" y1="0" x2="1" y2="0" gradientUnits="userSpaceOnUse" gradientTransform="matrix(21.8964,-26.7078,27.2856,22.3701,15.2795,28.7209)"><stop offset="0" style="stop-color:#00280d;stop-opacity:1"/><stop offset="1" style="stop-color:#007c03;stop-opacity:1"/></linearGradient><linearGradient id="_Linear3" x1="0" y1="0" x2="1" y2="0" gradientUnits="userSpaceOnUse" gradientTransform="matrix(1.5047e-15,24.5736,-24.5736,1.5047e-15,23.9825,2.01313)"><stop offset="0" style="stop-color:#007c03;stop-opacity:1"/><stop offset="1" style="stop-color:#00240e;stop-opacity:1"/></linearGradient></defs></svg>